<svg width="49" height="48" viewBox="0 0 49 48" fill="none" xmlns="http://www.w3.org/2000/svg">
<path d="M15.6287 32.6018L21.9927 26.2378M30.0067 23.4078L28.1017 29.1228C28.0713 29.2144 28.0193 29.2974 27.95 29.3646C27.8807 29.4318 27.7962 29.4813 27.7037 29.5088L16.0257 32.9798C15.9205 33.0111 15.8087 33.0129 15.7026 32.985C15.5964 32.9572 15.4999 32.9007 15.4236 32.8218C15.3473 32.7429 15.2941 32.6446 15.2698 32.5376C15.2455 32.4306 15.251 32.319 15.2857 32.2148L19.0777 20.8408C19.1049 20.7592 19.1493 20.6843 19.208 20.6213C19.2666 20.5584 19.3382 20.5087 19.4177 20.4758L24.8047 18.2578C24.9142 18.2126 25.0347 18.2008 25.1509 18.224C25.2671 18.2471 25.3739 18.3041 25.4577 18.3878L29.8617 22.7928C29.9407 22.8717 29.9961 22.9711 30.0217 23.0797C30.0473 23.1883 30.0421 23.302 30.0067 23.4078Z" stroke="white" stroke-width="1.5" stroke-linecap="round" stroke-linejoin="round"/>
<path d="M30.1244 23.056L32.9524 20.227C33.3273 19.8519 33.5379 19.3433 33.5379 18.813C33.5379 18.2827 33.3273 17.774 32.9524 17.399L30.8324 15.277C30.6466 15.0912 30.4261 14.9438 30.1834 14.8432C29.9407 14.7427 29.6806 14.6909 29.4179 14.6909C29.1552 14.6909 28.895 14.7427 28.6523 14.8432C28.4096 14.9438 28.1891 15.0912 28.0034 15.277L25.1754 18.106M24.1134 24.116C23.974 23.9767 23.8086 23.8663 23.6266 23.7909C23.4446 23.7156 23.2495 23.6768 23.0525 23.6769C22.8555 23.6769 22.6604 23.7158 22.4785 23.7912C22.2965 23.8666 22.1311 23.9772 21.9919 24.1165C21.8526 24.2558 21.7421 24.4212 21.6668 24.6032C21.5914 24.7853 21.5527 24.9803 21.5527 25.1773C21.5528 25.3743 21.5916 25.5694 21.6671 25.7514C21.7425 25.9334 21.853 26.0987 21.9924 26.238C22.2738 26.5193 22.6554 26.6772 23.0532 26.6771C23.4511 26.677 23.8326 26.5189 24.1139 26.2375C24.3951 25.9561 24.5531 25.5745 24.553 25.1766C24.5529 24.7788 24.3948 24.3973 24.1134 24.116Z" stroke="white" stroke-width="1.5" stroke-linecap="round" stroke-linejoin="round"/>
<rect x="0.833008" y="0.5" width="47" height="47" rx="4.5" stroke="white"/>
</svg>
