<svg width="48" height="48" viewBox="0 0 48 48" fill="none" xmlns="http://www.w3.org/2000/svg">
<g clip-path="url(#clip0_917_1071)">
<path d="M21.374 18.408C20.504 18.4415 19.7175 18.752 19.297 19.173C19.2505 19.2194 19.1954 19.2562 19.1347 19.2814C19.074 19.3065 19.009 19.3194 18.9433 19.3194C18.8776 19.3193 18.8126 19.3064 18.7519 19.2812C18.6913 19.2561 18.6361 19.2192 18.5897 19.1728C18.5433 19.1263 18.5065 19.0712 18.4814 19.0105C18.4562 18.9498 18.4433 18.8848 18.4434 18.8191C18.4434 18.7534 18.4563 18.6884 18.4815 18.6277C18.5066 18.567 18.5435 18.5119 18.59 18.4655C19.2385 17.817 20.2945 17.449 21.335 17.4085C22.3825 17.368 23.526 17.6545 24.327 18.4555C24.4207 18.5493 24.4734 18.6765 24.4733 18.8092C24.4733 18.9418 24.4205 19.069 24.3267 19.1628C24.2329 19.2565 24.1057 19.3092 23.973 19.3091C23.8404 19.3091 23.7132 19.2563 23.6195 19.1625C23.0745 18.617 22.2375 18.374 21.374 18.4075V18.408Z" fill="white"/>
<path fill-rule="evenodd" clip-rule="evenodd" d="M26.468 25.692C27.4594 24.5204 28.0024 23.0348 28 21.5C28 17.91 25.09 15 21.5 15C17.91 15 15 17.91 15 21.5C15 25.09 17.91 28 21.5 28C23.0975 28 24.56 27.424 25.692 26.468L25.5 27.572L29.257 31.329L31.329 29.257L27.572 25.5L26.468 25.692ZM21.5 26.5C24.2615 26.5 26.5 24.2615 26.5 21.5C26.5 18.7385 24.2615 16.5 21.5 16.5C18.7385 16.5 16.5 18.7385 16.5 21.5C16.5 24.2615 18.7385 26.5 21.5 26.5Z" fill="white"/>
<path d="M29.9639 32.0359L32.0359 29.9639L32.7139 30.6419C33.0954 31.0234 33.0954 31.6419 32.7139 32.0229L32.0229 32.7139C31.6414 33.0954 31.0229 33.0954 30.6419 32.7139L29.9639 32.0359Z" fill="white"/>
</g>
<rect x="0.5" y="0.5" width="47" height="47" rx="4.5" stroke="white"/>
<defs>
<clipPath id="clip0_917_1071">
<rect width="24" height="24" fill="white" transform="translate(12 12)"/>
</clipPath>
</defs>
</svg>
