<svg width="48" height="48" viewBox="0 0 48 48" fill="none" xmlns="http://www.w3.org/2000/svg">
<g clip-path="url(#clip0_917_1061)">
<g clip-path="url(#clip1_917_1061)">
<path fill-rule="evenodd" clip-rule="evenodd" d="M15 17C15 16.4696 15.2107 15.9609 15.5858 15.5858C15.9609 15.2107 16.4696 15 17 15H23V33H17C16.4696 33 15.9609 32.7893 15.5858 32.4142C15.2107 32.0391 15 31.5304 15 31V17ZM25 33H31C31.5304 33 32.0391 32.7893 32.4142 32.4142C32.7893 32.0391 33 31.5304 33 31V25H25V33ZM25 23H33V17C33 16.4696 32.7893 15.9609 32.4142 15.5858C32.0391 15.2107 31.5304 15 31 15H25V23Z" fill="white"/>
</g>
</g>
<rect x="0.5" y="0.5" width="47" height="47" rx="4.5" stroke="white"/>
<defs>
<clipPath id="clip0_917_1061">
<rect width="24" height="24" fill="white" transform="translate(12 12)"/>
</clipPath>
<clipPath id="clip1_917_1061">
<rect width="24" height="24" fill="white" transform="translate(12 12)"/>
</clipPath>
</defs>
</svg>
